#!OML:ASF H:\Terrain\Walking\May29\JustinRory\Justin.ASF
:FULLY-SPECIFIED
:DEGREES
270
root 10.2376 17.7583 8.52106 -181.458 -37.4469 -173.495
lowerback 5.87136 1.92098 1.28566
upperback 2.82847 2.51151 1.23211
thorax -0.378118 1.20586 0.392285
lowerneck -4.91794 -12.2476 -18.0804
upperneck 17.2027 -17.2942 10.3816
head 8.65285 -8.7798 4.46053
rclavicle 1.21756e-014 1.78906e-015
rhumerus -19.4799 -2.74792 -83.3325
rradius 36.1364
rwrist -1.22961
rhand -2.12822 27.5944
rfingers 7.12502
rthumb 23.5504 -0.983713
lclavicle 1.21756e-014 1.78906e-015
lhumerus -34.2782 12.8676 78.9647
lradius 42.7794
lwrist -6.7228
lhand -1.4284 31.1976
lfingers 7.12502
lthumb 24.2215 59.6879
rfemur -0.74703 1.90905 26.3117
rtibia 20.3538
rfoot -14.3179 8.62479
rtoes 12.5614
lfemur -26.69 -7.14321 -6.52921
ltibia 21.7379
lfoot -10.2564 -9.733
ltoes -17.9651
271
root 10.3101 17.7663 8.54672 -182.057 -38.8475 -173.324
lowerback 6.16353 1.50625 1.30678
upperback 3.13978 1.94189 1.27949
thorax -0.221861 0.914001 0.460631
lowerneck -4.97616 -12.3423 -17.8952
upperneck 16.7961 -17.4408 10.7351
head 8.56381 -8.80055 4.52999
rclavicle -1.67476e-014 -1.55052e-014
rhumerus -19.3933 -3.83791 -83.608
rradius 33.2468
rwrist -0.271324
rhand -2.55313 26.7156
rfingers 7.12502
rthumb 23.1428 -1.91434
lclavicle -1.67476e-014 -1.55052e-014
lhumerus -34.0571 12.3191 79.1276
lradius 42.5824
lwrist -6.48315
lhand -1.61502 31.6442
lfingers 7.12502
lthumb 24.0426 60.1582
rfemur -0.287529 1.66383 26.7594
rtibia 20.2127
rfoot -14.8523 7.27655
rtoes 12.594
lfemur -26.5169 -6.8981 -6.73312
ltibia 22.0016
lfoot -10.6824 -9.53195
ltoes -13.7698
272
root 10.3897 17.77 8.60202 -183.015 -38.6863 -171.962
lowerback 6.50229 1.56976 2.2462
upperback 3.17808 2.07005 1.67006
thorax -0.348628 0.975325 0.319826
lowerneck -4.73998 -12.5052 -17.9214
upperneck 16.2963 -17.6917 11.0156
head 8.42213 -8.90087 4.60671
rclavicle 1.18277e-014 4.29375e-014
rhumerus -19.5591 -5.18075 -83.4866
rradius 30.4072
rwrist 0.611064
rhand -3.01261 26.1484
rfingers 7.12502
rthumb 22.7019 -2.53614
lclavicle 1.18277e-014 4.29375e-014
lhumerus -34.0947 11.8645 79.3525
lradius 42.2428
lwrist -6.01862
lhand -1.74152 31.5834
lfingers 7.12502
lthumb 23.9213 60.1134
rfemur -0.610477 2.17742 28.105
rtibia 20.3976
rfoot -15.1656 6.56582
rtoes 10.9489
lfemur -26.3893 -5.8247 -5.62358
ltibia 22.1885
lfoot -11.1063 -8.65127
ltoes -16.3637
273
root 10.4436 17.8014 8.69199 -181.847 -38.9567 -173.347
lowerback 6.53261 1.59135 1.41754
upperback 3.10016 2.06624 1.42081
thorax -0.468055 0.972679 0.524971
lowerneck -4.50209 -12.7555 -18.0291
upperneck 15.8653 -18.0423 11.1843
head 8.31769 -9.06091 4.64049
rclavicle 3.77691e-015 -1.11319e-014
rhumerus -19.654 -6.93579 -83.1414
rradius 27.4148
rwrist 1.89364
rhand -2.84689 26.2066
rfingers 7.12502
rthumb 22.8609 -2.45846
lclavicle 3.77691e-015 -1.11319e-014
lhumerus -34.0292 11.735 79.453
lradius 41.6668
lwrist -5.92048
lhand -1.7745 31.172
lfingers 7.12502
lthumb 23.8897 59.7061
rfemur -1.51095 1.69809 26.7711
rtibia 20.7538
rfoot -15.2075 6.82256
rtoes 10.3045
lfemur -26.5815 -5.89402 -6.81988
ltibia 22.1256
lfoot -11.1665 -7.35412
ltoes -15.7758
274
root 10.5213 17.8134 8.77712 -181.522 -37.8161 -173.19
lowerback 6.621 2.03522 1.53872
upperback 2.91187 2.67676 1.48405
thorax -0.707453 1.27906 0.473675
lowerneck -4.13274 -12.8723 -18.1888
upperneck 15.5397 -18.2641 11.4274
head 8.21875 -9.16998 4.73492
rclavicle -2.16675e-014 -1.39149e-015
rhumerus -19.6091 -9.57615 -82.68
rradius 23.763
rwrist 4.09897
rhand -3.60029 26.4525
rfingers 7.12502
rthumb 22.1378 -2.30008
lclavicle -2.16675e-014 -1.39149e-015
lhumerus -34.0029 11.8856 79.3222
lradius 40.9092
lwrist -6.07901
lhand -1.65187 31.0527
lfingers 7.12502
lthumb 24.0073 59.5714
rfemur -2.78554 2.74204 26.9381
rtibia 21.3162
rfoot -14.7304 6.97331
rtoes 11.056
lfemur -26.6299 -6.06037 -6.05742
ltibia 22.1288
lfoot -11.3017 -5.05558
ltoes -15.3945
275
root 10.5787 17.838 8.84471 -180.483 -38.2798 -174.356
lowerback 6.50011 1.9243 0.669317
upperback 2.81211 2.4897 1.29016
thorax -0.77339 1.18703 0.775355
lowerneck -3.99255 -12.9622 -18.1276
upperneck 15.3151 -18.3879 11.4236
head 8.13254 -9.2276 4.71733
rclavicle -1.12388e-013 2.04748e-014
rhumerus -21.0872 -13.1545 -81.8849
rradius 22.9621
rwrist 6.71393
rhand -4.57477 25.2773
rfingers 7.12502
rthumb 21.2019 -3.58319
lclavicle -1.12388e-013 2.04748e-014
lhumerus -34.1168 12.416 78.9303
lradius 40.2119
lwrist -6.82714
lhand -0.608802 31.2014
lfingers 7.12502
lthumb 25.0071 59.5847
rfemur -3.70946 2.53349 25.8938
rtibia 21.9133
rfoot -14.5549 7.05868
rtoes 12.371
lfemur -26.7726 -6.33721 -6.97433
ltibia 22.104
lfoot -11.216 -4.60085
ltoes -16.4623
276
root 10.6314 17.8612 8.91615 -179.88 -38.9051 -175.182
lowerback 6.60458 1.72975 0.208729
upperback 2.81952 2.20549 1.16664
thorax -0.834011 1.04391 0.92328
lowerneck -4.09432 -13.1066 -17.9265
upperneck 15.0873 -18.5074 11.2282
head 8.05407 -9.27448 4.60245
rclavicle -5.33737e-014 -3.08116e-015
rhumerus -22.0878 -16.5441 -80.9186
rradius 21.478
rwrist 8.21922
rhand -6.19377 23.9016
rfingers 7.12502
rthumb 19.6461 -5.12566
lclavicle -5.33737e-014 -3.08116e-015
lhumerus -34.1977 13.4699 78.1914
lradius 39.476
lwrist -8.63893
lhand 2.33598 31.1935
lfingers 7.12502
lthumb 27.8259 59.1532
rfemur -4.29855 2.07713 25.1207
rtibia 22.3142
rfoot -14.5851 6.9555
rtoes 12.5035
lfemur -26.9467 -6.28661 -7.79
ltibia 22.5466
lfoot -11.0129 -4.97248
ltoes -17.3804
